<svg xmlns="http://www.w3.org/2000/svg" viewBox="0 0 320 80" fill="none" role="img" aria-label="Valtoris Financial">
  <defs>
    <linearGradient id="valtoris-v" x1="40" y1="4" x2="40" y2="60" gradientUnits="userSpaceOnUse">
      <stop stop-color="#2a3f6e"/>
      <stop offset="0.45" stop-color="#07144D"/>
      <stop offset="1" stop-color="#0a1f6b"/>
    </linearGradient>
    <linearGradient id="pillar-gold" x1="40" y1="28" x2="40" y2="64" gradientUnits="userSpaceOnUse">
      <stop stop-color="#D4AE62"/>
      <stop offset="0.5" stop-color="#C79B45"/>
      <stop offset="1" stop-color="#A67C32"/>
    </linearGradient>
  </defs>

  <g transform="translate(40, 4)">
    <g transform="translate(0, 24)">
      <rect x="-11" y="0" width="22" height="4" fill="#C8A96A" rx="0.5"/>
      <path d="M-9 4 H9 L7.5 7 H-7.5 Z" fill="url(#pillar-gold)"/>
      <rect x="-6" y="7" width="12" height="30" fill="url(#pillar-gold)"/>
      <line x1="-3.5" y1="9" x2="-3.5" y2="35" stroke="#8F6428" stroke-width="0.6" opacity="0.5"/>
      <line x1="0" y1="9" x2="0" y2="35" stroke="#8F6428" stroke-width="0.6" opacity="0.5"/>
      <line x1="3.5" y1="9" x2="3.5" y2="35" stroke="#8F6428" stroke-width="0.6" opacity="0.5"/>
      <rect x="-8" y="37" width="16" height="3" fill="#C8A96A" rx="0.5"/>
    </g>
    <text x="0" y="56" text-anchor="middle" font-family="'Times New Roman', Times, serif" font-size="62" fill="url(#valtoris-v)">V</text>
  </g>

  <g transform="translate(206, 0)">
    <text x="0" y="34" text-anchor="middle" font-family="'Times New Roman', Times, serif" font-size="30" fill="#07144D" letter-spacing="6">VALTORIS</text>
    <line x1="-44" y1="54" x2="-32" y2="54" stroke="#C79B45" stroke-width="1.6" stroke-linecap="round"/>
    <text x="0" y="60" text-anchor="middle" font-family="'Times New Roman', Times, serif" font-size="12.5" fill="#C79B45" letter-spacing="5">FINANCIAL</text>
    <line x1="32" y1="54" x2="44" y2="54" stroke="#C79B45" stroke-width="1.6" stroke-linecap="round"/>
  </g>
</svg>
